<?xml version="1.0" encoding="UTF-8"?>
<svg width="181px" height="41px" viewBox="0 0 181 41" version="1.1" xmlns="http://www.w3.org/2000/svg" xmlns:xlink="http://www.w3.org/1999/xlink">
    <!-- Generator: Sketch 40.3 (33839) - http://www.bohemiancoding.com/sketch -->
    <title>Group 3</title>
    <desc>Created with Sketch.</desc>
    <defs></defs>
    <g id="Page-1" stroke="none" stroke-width="1" fill="none" fill-rule="evenodd">
        <g id="Artboard" transform="translate(-239.000000, -73.000000)">
            <g id="Group-3" transform="translate(239.000000, 73.000000)">
                <g id="king">
                    <polygon id="Shape" fill="#ECF0F1" points="36.9443633 16.599961 27.8222637 23.8108878 20.6263633 13.2522146 13.4329453 23.8076098 4.31332813 16.639922 3.47242773 11.7630439 12.6765273 19.0212683 20.6246816 7.35921951 28.5745176 19.0212683 37.7785371 11.7630439"></polygon>
                    <g id="Group" transform="translate(0.800781, 0.780488)">
                        <polygon id="Shape" fill-opacity="0.492725317" fill="#B6EAFC" points="36.143582 15.8154927 33.6308105 30.3842341 6.0185918 30.3842341 3.51254687 15.8554537 12.6321641 23.0282146 19.825582 12.4722732 27.0214824 23.0327415"></polygon>
                        <ellipse id="Oval" fill-opacity="0.521710824" fill="#F8C660" cx="19.8247012" cy="3.31683902" rx="3.34694531" ry="3.26212683"></ellipse>
                        <ellipse id="Oval" fill-opacity="0.521710824" fill="#F8C660" cx="36.6431094" cy="9.67797073" rx="2.71937305" ry="2.65045854"></ellipse>
                        <ellipse id="Oval" fill-opacity="0.521710824" fill="#F8C660" cx="2.75532812" cy="9.67797073" rx="2.71937305" ry="2.65045854"></ellipse>
                    </g>
                    <polygon id="Shape" fill="#FFFFFF" points="20.6707266 28.3029854 17.6574668 24.1428293 20.6707266 19.9826732 23.6839062 24.1428293"></polygon>
                    <g id="Group" transform="translate(9.000000, 7.000000)" fill="#637982">
                        <path d="M41,10.4585366 C41,8.5473561 39.4047637,6.99254634 37.4438906,6.99254634 C35.4830176,6.99254634 33.8877813,8.5473561 33.8877813,10.4585366 C33.8877813,11.4286829 34.2993828,12.3064195 34.960668,12.9361951 L28.7627813,17.8237659 L22.0250078,7.93959024 C23.645709,7.37717073 24.8092441,5.86755122 24.8092441,4.09740488 C24.8092441,1.84897561 22.9324531,0.0197463415 20.6255625,0.0197463415 C18.3186719,0.0197463415 16.4418809,1.84897561 16.4418809,4.09740488 C16.4418809,5.86716098 17.6049355,7.37646829 19.224916,7.9392 L12.4881836,17.8236878 L6.15024023,12.825678 C6.74626172,12.2056585 7.11221875,11.3731902 7.11221875,10.4585366 C7.11221875,8.5473561 5.51698242,6.99254634 3.55610937,6.99254634 C1.59523633,6.99254634 0,8.5473561 0,10.4585366 C0,12.1815415 1.29678516,13.614361 2.98899609,13.879961 L5.99432812,31.2957659 C6.06207422,31.6884293 6.41097461,31.9802537 6.81945312,31.9802537 L34.4316719,31.9802537 C34.8402305,31.9802537 35.1890508,31.6885073 35.2567969,31.2957659 L38.2707773,13.8310244 C39.8339824,13.4666927 41,12.0922537 41,10.4585366 L41,10.4585366 Z M18.1152734,4.09740488 C18.1152734,2.74833171 19.241332,1.65080976 20.6254824,1.65080976 C22.0096328,1.65080976 23.1356914,2.74833171 23.1356914,4.09740488 C23.1356914,5.44647805 22.0096328,6.544 20.6254824,6.544 C19.241332,6.544 18.1152734,5.44647805 18.1152734,4.09740488 L18.1152734,4.09740488 Z M12.803291,19.8274341 C13.0361582,19.7926244 13.2431602,19.6638439 13.3734473,19.4725463 L20.6247617,8.83301463 L27.8775977,19.4725463 C28.0079648,19.6637659 28.2149668,19.7925463 28.4477539,19.8273561 C28.680541,19.8619317 28.9176523,19.7996488 29.100791,19.6551805 L36.5194687,13.8049561 C36.538127,13.8098732 36.5567051,13.8148683 36.5754434,13.8194732 L36.173291,16.1514927 L28.0098066,22.6117463 L21.3233633,12.8003902 C21.168252,12.572878 20.9066367,12.4360585 20.6263633,12.4360585 C20.3460898,12.4360585 20.0843945,12.5728 19.9293633,12.8003902 L13.244041,22.6097951 L5.08424023,16.1902049 L4.66375,13.7514927 L12.1501738,19.6551805 C12.3333125,19.7997268 12.5701836,19.8620098 12.803291,19.8274341 L12.803291,19.8274341 Z M1.67347266,10.4585366 C1.67347266,9.4467122 2.51797656,8.62360976 3.55610937,8.62360976 C4.59424219,8.62360976 5.43874609,9.4467122 5.43874609,10.4585366 C5.43874609,11.470361 4.59424219,12.2934634 3.55610937,12.2934634 C2.51797656,12.2934634 1.67347266,11.470361 1.67347266,10.4585366 L1.67347266,10.4585366 Z M33.7238613,30.3491902 L7.52718359,30.3491902 L5.50441016,18.6210341 L12.9073926,24.443239 C13.0905313,24.5873951 13.3275625,24.6485073 13.5601895,24.6136976 C13.7928164,24.5788098 13.9996582,24.4494829 14.1299453,24.2583415 L20.6263633,14.7258537 L27.1252637,24.2619317 C27.255791,24.4533854 27.4630332,24.5821659 27.6961406,24.6168195 C27.9296484,24.6515512 28.1665996,24.5885659 28.3496582,24.4437073 L35.7518398,18.5901268 L33.7238613,30.3491902 L33.7238613,30.3491902 Z M37.4438906,12.2934634 C36.4057578,12.2934634 35.5612539,11.470361 35.5612539,10.4585366 C35.5612539,9.4467122 36.4057578,8.62360976 37.4438906,8.62360976 C38.4820234,8.62360976 39.3265273,9.4467122 39.3265273,10.4585366 C39.3265273,11.470361 38.4820234,12.2934634 37.4438906,12.2934634 L37.4438906,12.2934634 Z" id="Shape"></path>
                        <path d="M21.3123926,19.5123512 C21.1555996,19.295922 20.9007109,19.1671415 20.6288457,19.1671415 C20.3569805,19.1671415 20.1020918,19.295922 19.9452988,19.5123512 L16.9320391,23.6725073 C16.7277598,23.9544976 16.7277598,24.331239 16.9320391,24.6131512 L19.9452988,28.7733073 C20.1020918,28.9897366 20.3569805,29.1185171 20.6288457,29.1185171 C20.9007109,29.1185171 21.1555996,28.9897366 21.3123926,28.7733073 L24.3256523,24.6131512 C24.5299316,24.331161 24.5299316,23.9544195 24.3256523,23.6725073 L21.3123926,19.5123512 L21.3123926,19.5123512 Z M20.6288457,26.8889756 L18.6398652,24.1428293 L20.6288457,21.3966829 L22.6178262,24.1428293 L20.6288457,26.8889756 L20.6288457,26.8889756 Z" id="Shape"></path>
                    </g>
                </g>
                <g id="Group-2" transform="translate(61.000000, 4.000000)">
                    <path d="M30.6699219,2.01171875 L30.3691406,3.48828125 L30,3.48828125 C29.6992172,3.48828125 29.4075535,3.50878886 29.125,3.54980469 C28.8424465,3.59082052 28.5826835,3.67057232 28.3457031,3.7890625 C28.1087228,3.90755268 27.9059253,4.08072803 27.7373047,4.30859375 C27.5686841,4.53645947 27.4433598,4.83268047 27.3613281,5.19726562 L24.4902344,18.9238281 C24.4537759,19.024089 24.4241538,19.1380202 24.4013672,19.265625 C24.3785806,19.3932298 24.3671875,19.4934892 24.3671875,19.5664062 C24.3671875,19.7669281 24.4173172,19.9287103 24.5175781,20.0517578 C24.617839,20.1748053 24.756835,20.2705075 24.9345703,20.3388672 C25.1123056,20.4072269 25.3264961,20.4527994 25.5771484,20.4755859 C25.8278007,20.4983725 26.0989569,20.5097656 26.390625,20.5097656 L26.7460938,20.5097656 L26.4453125,22 L16.9023438,22 L17.203125,20.5097656 L17.5722656,20.5097656 C17.8730484,20.5097656 18.1647121,20.4915366 18.4472656,20.4550781 C18.7298191,20.4186196 18.9873035,20.3388678 19.2197266,20.2158203 C19.4521496,20.0927728 19.6549471,19.9218761 19.828125,19.703125 C20.0013029,19.4843739 20.1243486,19.1881529 20.1972656,18.8144531 L23.1640625,4.7734375 L13.8945312,22 L11.9667969,22 L9.69726562,4.7734375 L6.73046875,18.6914062 C6.68489561,18.9010427 6.65071626,19.0810539 6.62792969,19.2314453 C6.60514312,19.3818367 6.59375,19.4934892 6.59375,19.5664062 C6.59375,19.7669281 6.64387971,19.9287103 6.74414062,20.0517578 C6.84440154,20.1748053 6.98567617,20.2705075 7.16796875,20.3388672 C7.35026133,20.4072269 7.56673052,20.4527994 7.81738281,20.4755859 C8.06803511,20.4983725 8.33919125,20.5097656 8.63085938,20.5097656 L8.7265625,20.5097656 L8.41210938,22 L1.35742188,22 L1.65820312,20.5097656 L2.02734375,20.5097656 C2.31901188,20.5097656 2.60383976,20.4915366 2.88183594,20.4550781 C3.15983212,20.4186196 3.41275928,20.3411464 3.640625,20.2226562 C3.86849072,20.1041661 4.06673093,19.935548 4.23535156,19.7167969 C4.4039722,19.4980458 4.52473922,19.206382 4.59765625,18.8417969 L7.45507812,5.40234375 C7.5735683,4.91926842 7.6328125,4.60026119 7.6328125,4.4453125 C7.6328125,4.24479066 7.58268279,4.0807298 7.48242188,3.953125 C7.38216096,3.8255202 7.24316495,3.7275394 7.06542969,3.65917969 C6.88769442,3.59081997 6.67350386,3.54524751 6.42285156,3.52246094 C6.17219927,3.49967437 5.90104313,3.48828125 5.609375,3.48828125 L5.25390625,3.48828125 L5.5546875,2.01171875 L13.3613281,2.01171875 L15.2480469,15.6152344 L22.5761719,2.01171875 L30.6699219,2.01171875 Z M40.0082031,22.2734375 C39.1787719,22.2734375 38.513414,22.0843118 38.0121094,21.7060547 C37.5108048,21.3277976 37.2601563,20.7740922 37.2601563,20.0449219 C37.2601563,19.7532537 37.273828,19.4684259 37.3011719,19.1904297 C37.3285158,18.9124335 37.3786455,18.5911477 37.4515625,18.2265625 L37.2601563,18.2265625 C36.9138004,18.8737012 36.5697283,19.4501928 36.2279297,19.9560547 C35.8861311,20.4619166 35.5056011,20.8857405 35.0863281,21.2275391 C34.6670552,21.5693376 34.1999375,21.8291007 33.684961,22.0068359 C33.1699844,22.1845712 32.5707066,22.2734375 31.8871094,22.2734375 C31.2217415,22.2734375 30.638414,22.143556 30.1371094,21.8837891 C29.6358048,21.6240221 29.2188168,21.2662783 28.8861328,20.8105469 C28.5534489,20.3548154 28.3028003,19.8147818 28.1341797,19.1904297 C27.9655591,18.5660776 27.88125,17.8893266 27.88125,17.1601562 C27.88125,16.4309859 27.9655591,15.6676472 28.1341797,14.8701172 C28.3028003,14.0725872 28.5557275,13.2864622 28.8929688,12.5117188 C29.23021,11.7369753 29.6471981,10.9987014 30.1439453,10.296875 C30.6406926,9.59504857 31.2149056,8.97982035 31.8666016,8.45117188 C32.5182976,7.9225234 33.2451783,7.50097813 34.0472656,7.18652344 C34.849353,6.87206874 35.7243442,6.71484375 36.6722656,6.71484375 C37.0368508,6.71484375 37.4082664,6.74446585 37.7865235,6.80371094 C38.1647806,6.86295603 38.5270816,6.93815059 38.8734375,7.02929688 C39.2197934,7.12044316 39.5456365,7.2229812 39.8509766,7.33691406 C40.1563167,7.45084692 40.4138011,7.5670567 40.6234375,7.68554688 L42.1,7.015625 L43.5902344,7.015625 L41.7445313,15.7519531 C41.7080728,15.9069018 41.6625003,16.1119779 41.6078125,16.3671875 C41.5531248,16.6223971 41.5007164,16.8935533 41.450586,17.1806641 C41.4004555,17.4677749 41.3571617,17.7457669 41.3207031,18.0146484 C41.2842446,18.28353 41.2660156,18.5091137 41.2660156,18.6914062 C41.2660156,19.1562523 41.3571606,19.502603 41.5394531,19.7304688 C41.7217457,19.9583345 41.9587225,20.0722656 42.2503906,20.0722656 C42.5147149,20.0722656 42.767642,20.0153 43.0091797,19.9013672 C43.2507174,19.7874343 43.5173163,19.6484383 43.8089844,19.484375 L44.4242188,20.6054688 C44.1872384,20.7877613 43.9183609,20.976887 43.6175781,21.1728516 C43.3167954,21.3688161 42.9818378,21.5488273 42.6126953,21.7128906 C42.2435529,21.8769539 41.8425152,22.0113927 41.4095703,22.1162109 C40.9766255,22.2210292 40.5095077,22.2734375 40.0082031,22.2734375 L40.0082031,22.2734375 Z M32.1332031,17.1875 C32.1332031,17.7252631 32.1719397,18.1764305 32.2494141,18.5410156 C32.3268884,18.9056008 32.4317051,19.1995432 32.5638672,19.4228516 C32.6960293,19.64616 32.8555329,19.8056636 33.0423828,19.9013672 C33.2292327,19.9970708 33.4320302,20.0449219 33.6507813,20.0449219 C34.0609396,20.0449219 34.4847635,19.8671893 34.9222656,19.5117188 C35.3597678,19.1562482 35.76992,18.6891305 36.1527344,18.1103516 C36.5355488,17.5315726 36.8796209,16.8776078 37.184961,16.1484375 C37.490301,15.4192672 37.720442,14.6809933 37.8753906,13.9335938 L38.8597656,9.28515625 C38.6774731,9.02083201 38.4245459,8.82487043 38.1009766,8.69726562 C37.7774073,8.56966082 37.4333352,8.50585938 37.06875,8.50585938 C36.5218723,8.50585938 36.0228538,8.647134 35.5716797,8.9296875 C35.1205056,9.212241 34.7126321,9.59049242 34.3480469,10.0644531 C33.9834617,10.5384138 33.6621759,11.0761689 33.3841797,11.6777344 C33.1061835,12.2792999 32.873764,12.9036426 32.6869141,13.5507812 C32.5000642,14.1979199 32.3610682,14.8359344 32.2699219,15.4648438 C32.1787756,16.0937531 32.1332031,16.6679662 32.1332031,17.1875 L32.1332031,17.1875 Z M48.8542969,17.1875 C48.8542969,17.7161485 48.8930335,18.1627586 48.9705079,18.5273438 C49.0479822,18.8919289 49.1527989,19.1858713 49.284961,19.4091797 C49.4171231,19.6324881 49.5766267,19.7942703 49.7634766,19.8945312 C49.9503265,19.9947922 50.153124,20.0449219 50.371875,20.0449219 C50.7820333,20.0449219 51.2035786,19.8671893 51.6365235,19.5117188 C52.0694684,19.1562482 52.4773419,18.6914091 52.8601563,18.1171875 C53.2429707,17.5429659 53.5870428,16.8912797 53.8923829,16.1621094 C54.1977229,15.4329391 54.4324211,14.6901079 54.5964844,13.9335938 L55.5808594,9.28515625 C55.3803376,9.02994664 55.1069028,8.83626368 54.7605469,8.70410156 C54.414191,8.57193944 54.0723976,8.50585938 53.7351563,8.50585938 C53.2065078,8.50585938 52.7188825,8.64941263 52.2722657,8.93652344 C51.8256489,9.22363425 51.4223326,9.60188567 51.0623047,10.0712891 C50.7022769,10.5406925 50.3832697,11.0784475 50.1052735,11.6845703 C49.8272773,12.2906931 49.5971364,12.9150358 49.4148438,13.5576172 C49.2325512,14.2001985 49.0935552,14.838213 48.9978516,15.4716797 C48.902148,16.1051464 48.8542969,16.6770808 48.8542969,17.1875 L48.8542969,17.1875 Z M58.4109375,15.984375 C58.3835937,16.1210944 58.3448571,16.3147774 58.2947266,16.5654297 C58.2445962,16.816082 58.1967451,17.0781236 58.1511719,17.3515625 C58.1055988,17.6250014 58.0668622,17.8938789 58.034961,18.1582031 C58.0030598,18.4225274 57.9871094,18.6412752 57.9871094,18.8144531 C57.9871094,19.2519553 58.0873688,19.5709625 58.2878907,19.7714844 C58.4884125,19.9720062 58.7162748,20.0722656 58.9714844,20.0722656 C59.2084648,20.0722656 59.4705064,20.0084642 59.7576172,19.8808594 C60.044728,19.7532546 60.3022125,19.6210944 60.5300782,19.484375 L61.1453125,20.578125 C60.8992176,20.7786468 60.6212256,20.9791657 60.3113282,21.1796875 C60.0014308,21.3802093 59.661916,21.5624992 59.2927735,21.7265625 C58.923631,21.8906258 58.524872,22.022786 58.0964844,22.1230469 C57.6680969,22.2233078 57.2123723,22.2734375 56.7292969,22.2734375 C56.3191386,22.2734375 55.9454444,22.2255864 55.6082032,22.1298828 C55.2709619,22.0341792 54.9815768,21.8951832 54.7400391,21.7128906 C54.4985014,21.530598 54.3116544,21.3004571 54.1794922,21.0224609 C54.0473301,20.7444648 53.98125,20.4186217 53.98125,20.0449219 C53.98125,19.8717439 53.9858073,19.7167976 53.9949219,19.5800781 C54.0040366,19.4433587 54.0154297,19.3089199 54.0291016,19.1767578 C54.0427736,19.0445957 54.0610025,18.9033211 54.0837891,18.7529297 C54.1065757,18.6025383 54.1361978,18.4270843 54.1726563,18.2265625 L54.0085938,18.2265625 C53.6622379,18.9466182 53.2976582,19.5618464 52.9148438,20.0722656 C52.5320294,20.5826848 52.1241559,21.0019515 51.691211,21.3300781 C51.2582661,21.6582048 50.793427,21.8974602 50.2966797,22.0478516 C49.7999325,22.1982429 49.264456,22.2734375 48.6902344,22.2734375 C47.9701787,22.2734375 47.3526719,22.1367201 46.8376954,21.8632812 C46.3227188,21.5898424 45.8988949,21.2207054 45.566211,20.7558594 C45.233527,20.2910133 44.9897144,19.748701 44.8347657,19.1289062 C44.679817,18.5091115 44.6023438,17.852868 44.6023438,17.1601562 C44.6023438,16.4309859 44.6866529,15.6676472 44.8552735,14.8701172 C45.0238941,14.0725872 45.2745427,13.2864622 45.6072266,12.5117187 C45.9399106,11.7369753 46.3500627,10.9987014 46.8376954,10.296875 C47.325328,9.59504857 47.8881479,8.97982035 48.5261719,8.45117188 C49.1641959,7.9225234 49.8728477,7.50097813 50.6521485,7.18652344 C51.4314493,6.87206874 52.2813757,6.71484375 53.2019532,6.71484375 C53.7488309,6.71484375 54.2592425,6.77408795 54.7332032,6.89257812 C55.2071639,7.0110683 55.6264305,7.17512916 55.9910157,7.38476563 C56.0183596,7.26627545 56.045703,7.12727944 56.0730469,6.96777344 C56.1003908,6.80826743 56.1300129,6.64876382 56.1619141,6.48925781 C56.1938153,6.32975181 56.225716,6.17936269 56.2576172,6.03808594 C56.2895184,5.89680919 56.3145833,5.78515666 56.3328125,5.703125 L56.5789063,4.58203125 C56.6062502,4.46354107 56.6335937,4.34049543 56.6609375,4.21289062 C56.6882814,4.08528582 56.7110677,3.9645188 56.7292969,3.85058594 C56.7475262,3.73665308 56.7611979,3.63867229 56.7703125,3.55664062 C56.7794272,3.47460896 56.7839844,3.41536477 56.7839844,3.37890625 C56.7839844,3.12369664 56.7566409,2.91862057 56.7019532,2.76367188 C56.6472654,2.60872318 56.5606777,2.49023479 56.4421875,2.40820312 C56.3236974,2.32617146 56.168751,2.27148451 55.9773438,2.24414062 C55.7859366,2.21679674 55.5580743,2.203125 55.29375,2.203125 L54.6511719,2.203125 L54.9109375,0.7265625 L61.6511719,0.7265625 L58.4109375,15.984375 Z M68.6515626,20.1542969 C69.107294,20.1542969 69.5402324,20.0882168 69.9503907,19.9560547 C70.360549,19.8238926 70.741079,19.6507172 71.0919923,19.4365234 C71.4429055,19.2223297 71.7573555,18.9807956 72.0353516,18.7119141 C72.3133478,18.4430325 72.5526032,18.1673191 72.7531251,17.8847656 C72.8625006,18.0214851 72.9490883,18.196939 73.0128907,18.4111328 C73.0766931,18.6253266 73.1085938,18.8509103 73.1085938,19.0878906 C73.1085938,19.4251319 72.9992199,19.7805971 72.7804688,20.1542969 C72.5617177,20.5279967 72.2267601,20.8720687 71.775586,21.1865234 C71.3244119,21.5009781 70.7501989,21.7607412 70.0529298,21.9658203 C69.3556606,22.1708995 68.5285205,22.2734375 67.5714844,22.2734375 C66.7147093,22.2734375 65.9080768,22.1549491 65.1515626,21.9179688 C64.3950484,21.6809884 63.7319691,21.3232446 63.1623048,20.8447266 C62.5926405,20.3662085 62.1437517,19.7646521 61.8156251,19.0400391 C61.4874984,18.3154261 61.3234376,17.4654997 61.3234376,16.4902344 C61.3234376,15.7975226 61.4145825,15.0729204 61.5968751,14.3164062 C61.7791676,13.5598921 62.0503238,12.8193396 62.4103516,12.0947266 C62.7703795,11.3701136 63.2169896,10.6819694 63.7501954,10.0302734 C64.2834012,9.37857747 64.900908,8.80664309 65.6027344,8.31445312 C66.3045609,7.82226316 67.0906858,7.43261862 67.9611329,7.14550781 C68.8315799,6.858397 69.7817658,6.71484375 70.8117188,6.71484375 C72.1515693,6.71484375 73.1906214,7.00422888 73.9289063,7.58300781 C74.6671913,8.16178675 75.0363282,8.97069793 75.0363282,10.0097656 C75.0363282,10.7662798 74.8266949,11.490882 74.4074219,12.1835938 C73.988149,12.8763055 73.4093788,13.4846979 72.6710938,14.0087891 C71.9328089,14.5328802 71.0532604,14.9498682 70.0324219,15.2597656 C69.0115835,15.569663 67.8996155,15.7246094 66.6964844,15.7246094 L66.1906251,15.7246094 C66.0083325,15.7246094 65.8305999,15.7154949 65.6574219,15.6972656 C65.6300781,15.8795582 65.6141277,16.0641267 65.6095704,16.2509766 C65.6050131,16.4378265 65.6027344,16.6087232 65.6027344,16.7636719 C65.6027344,17.8483127 65.8556616,18.6845674 66.3615235,19.2724609 C66.8673854,19.8603545 67.6307241,20.1542969 68.6515626,20.1542969 L68.6515626,20.1542969 Z M69.6359376,8.39648438 C69.1802061,8.39648438 68.7472677,8.5673811 68.3371094,8.90917969 C67.9269511,9.25097827 67.5578142,9.69530977 67.2296876,10.2421875 C66.9015609,10.7890652 66.6190117,11.4020148 66.3820313,12.0810547 C66.145051,12.7600945 65.9718756,13.4322883 65.8625001,14.0976562 L66.1085938,14.0976562 C66.8013056,14.0976562 67.4461559,14.0065113 68.0431641,13.8242188 C68.6401723,13.6419262 69.1596984,13.3798845 69.6017579,13.0380859 C70.0438174,12.6962874 70.3901681,12.2884138 70.6408204,11.8144531 C70.8914727,11.3404924 71.0167969,10.8072946 71.0167969,10.2148438 C71.0167969,9.64062213 70.8960299,9.19401201 70.6544923,8.875 C70.4129546,8.55598799 70.0734398,8.39648438 69.6359376,8.39648438 L69.6359376,8.39648438 Z" id="Made" fill="#576B74"></path>
                    <path d="M77.8300781,1.90234375 L78.0761719,0.7265625 L83.3671875,0.7265625 L80.1269531,15.984375 C79.8443996,17.3151108 79.703125,18.3496057 79.703125,19.0878906 C79.703125,20.035812 80.0130177,20.5097656 80.6328125,20.5097656 C81.1705756,20.5097656 81.8404908,20.2682316 82.6425781,19.7851562 L83.1484375,20.6054688 C81.8541602,21.7174535 80.591803,22.2734375 79.3613281,22.2734375 C78.6868456,22.2734375 78.1331402,22.0273462 77.7001953,21.5351562 C77.2672504,21.0429663 77.0507812,20.4049518 77.0507812,19.6210938 C77.0507812,18.7369747 77.2558573,17.2695415 77.6660156,15.21875 L79.9492188,4.47265625 C80.0677089,3.91666389 80.1269531,3.49739725 80.1269531,3.21484375 C80.1269531,2.33983938 79.4707097,1.90234375 78.1582031,1.90234375 L77.8300781,1.90234375 Z M88.9929687,4.18554688 C87.9447864,4.18554688 87.4207031,3.67513531 87.4207031,2.65429688 C87.4207031,2.061846 87.5733709,1.58561378 87.8787109,1.22558594 C88.184051,0.865558096 88.5919245,0.685546875 89.1023437,0.685546875 C90.1505261,0.685546875 90.6746094,1.20051568 90.6746094,2.23046875 C90.6746094,2.86849277 90.5173844,3.35383948 90.2029297,3.68652344 C89.888475,4.01920739 89.4851587,4.18554688 88.9929687,4.18554688 L88.9929687,4.18554688 Z M84.4539062,8.1640625 L84.7,6.98828125 L89.7175781,6.98828125 L87.8171875,15.984375 C87.534634,17.3242254 87.3933594,18.3587203 87.3933594,19.0878906 C87.3933594,20.035812 87.7032521,20.5097656 88.3230469,20.5097656 C88.86081,20.5097656 89.5307251,20.2682316 90.3328125,19.7851562 L90.8386719,20.6054688 C89.5443946,21.7174535 88.2820374,22.2734375 87.0515625,22.2734375 C86.3588507,22.2734375 85.7983094,22.022789 85.3699219,21.5214844 C84.9415343,21.0201798 84.7273437,20.3867226 84.7273437,19.6210938 C84.7273437,18.7825479 84.9369771,17.3151146 85.35625,15.21875 L86.4363281,10.078125 C86.5001305,9.77734225 86.5320312,9.53125096 86.5320312,9.33984375 C86.5320312,8.55598566 85.9623755,8.1640625 84.8230469,8.1640625 L84.4539062,8.1640625 Z M94.2769531,22 L91.665625,22 L94.0171875,10.7480469 C94.126563,10.228513 94.18125,9.80924639 94.18125,9.49023438 C94.18125,8.60611537 93.5295638,8.1640625 92.2261719,8.1640625 L92.0074219,8.1640625 L92.2535156,6.98828125 L97.4351562,6.98828125 L96.6832031,10.515625 L96.9566406,10.515625 C98.469669,7.99998742 100.169522,6.7421875 102.05625,6.7421875 C104.052354,6.7421875 105.050391,7.77668236 105.050391,9.84570312 C105.050391,10.438154 104.881772,11.4635344 104.544531,12.921875 L103.819922,16.2304688 C103.573827,17.3515681 103.450781,18.331376 103.450781,19.1699219 C103.450781,20.0631555 103.778903,20.5097656 104.435156,20.5097656 C104.972919,20.5097656 105.569919,20.2955751 106.226172,19.8671875 L106.732031,20.6875 C105.510671,21.744797 104.371359,22.2734375 103.314062,22.2734375 C102.539319,22.2734375 101.921812,22.022789 101.461523,21.5214844 C101.001235,21.0201798 100.771094,20.3411501 100.771094,19.484375 C100.771094,18.6275999 100.948826,17.3652427 101.304297,15.6972656 L101.946875,12.7988281 C102.220314,11.6686141 102.357031,10.7981801 102.357031,10.1875 C102.357031,9.0846299 101.92865,8.53320312 101.071875,8.53320312 C100.032807,8.53320312 98.9686903,9.23501902 97.8794922,10.6386719 C96.790294,12.0423247 96.0907567,13.4413993 95.7808594,14.8359375 L94.2769531,22 Z M117.635156,18.5 C117.826563,18.6184902 117.922266,18.8509097 117.922266,19.1972656 C117.922266,19.9446652 117.482491,20.6442025 116.60293,21.2958984 C115.723368,21.9475944 114.54532,22.2734375 113.06875,22.2734375 C111.437231,22.2734375 110.120187,21.7584687 109.117578,20.7285156 C108.114969,19.6985626 107.613672,18.2858163 107.613672,16.4902344 C107.613672,14.0475138 108.402075,11.8076274 109.978906,9.77050781 C111.555737,7.73338825 113.547254,6.71484375 115.953516,6.71484375 C117.138417,6.71484375 118.056702,6.99739301 118.708398,7.5625 C119.360094,8.12760699 119.685937,8.91601057 119.685937,9.92773438 C119.685937,11.4407628 118.899813,12.7578069 117.327539,13.8789062 C115.755266,15.0000056 113.834386,15.5605469 111.564844,15.5605469 L111.086328,15.5605469 C110.922265,15.5605469 110.753647,15.5514324 110.580469,15.5332031 C110.54401,15.7884127 110.525781,16.1803359 110.525781,16.7089844 C110.525781,19.2428512 111.551162,20.5097656 113.601953,20.5097656 C115.197013,20.5097656 116.541401,19.8398504 117.635156,18.5 L117.635156,18.5 Z M110.840234,14.2480469 L111.113672,14.2480469 C112.76342,14.2480469 114.123758,13.8470092 115.194727,13.0449219 C116.265695,12.2428345 116.801172,11.2037824 116.801172,9.92773438 C116.801172,8.67903021 116.25886,8.0546875 115.174219,8.0546875 C114.27187,8.0546875 113.42878,8.62206464 112.644922,9.75683594 C111.861064,10.8916072 111.259507,12.3886626 110.840234,14.2480469 L110.840234,14.2480469 Z" id="line" fill="#5DAECB" opacity="0.68115942"></path>
                    <text id="COGNITIVES-THEME" font-family="OpenSans-BoldItalic, Open Sans" font-size="11" font-style="italic" font-weight="bold" letter-spacing="1.09000003" fill-opacity="0.514464447" fill="#576B74">
                        <tspan x="0" y="36">COGNITIVES THEM</tspan>
                        <tspan x="110.016504" y="36">E</tspan>
                    </text>
                </g>
            </g>
        </g>
    </g>
</svg>