<?xml version="1.0" encoding="UTF-8"?>
<svg width="176px" height="41px" viewBox="0 0 176 41" version="1.1" xmlns="http://www.w3.org/2000/svg" xmlns:xlink="http://www.w3.org/1999/xlink">
    <!-- Generator: Sketch 40.3 (33839) - http://www.bohemiancoding.com/sketch -->
    <title>Group 3</title>
    <desc>Created with Sketch.</desc>
    <defs></defs>
    <g id="Page-1" stroke="none" stroke-width="1" fill="none" fill-rule="evenodd">
        <g id="Artboard" transform="translate(-102.000000, -56.000000)">
            <g id="Group-3" transform="translate(102.000000, 56.000000)">
                <g id="king">
                    <polygon id="Shape" fill="#ECF0F1" points="36.9443633 16.599961 27.8222637 23.8108878 20.6263633 13.2522146 13.4329453 23.8076098 4.31332813 16.639922 3.47242773 11.7630439 12.6765273 19.0212683 20.6246816 7.35921951 28.5745176 19.0212683 37.7785371 11.7630439"></polygon>
                    <g id="Group" transform="translate(0.800781, 0.780488)">
                        <polygon id="Shape" fill-opacity="0.492725317" fill="#B6EAFC" points="36.143582 15.8154927 33.6308105 30.3842341 6.0185918 30.3842341 3.51254687 15.8554537 12.6321641 23.0282146 19.825582 12.4722732 27.0214824 23.0327415"></polygon>
                        <ellipse id="Oval" fill-opacity="0.521710824" fill="#F8C660" cx="19.8247012" cy="3.31683902" rx="3.34694531" ry="3.26212683"></ellipse>
                        <ellipse id="Oval" fill-opacity="0.521710824" fill="#F8C660" cx="36.6431094" cy="9.67797073" rx="2.71937305" ry="2.65045854"></ellipse>
                        <ellipse id="Oval" fill-opacity="0.521710824" fill="#F8C660" cx="2.75532812" cy="9.67797073" rx="2.71937305" ry="2.65045854"></ellipse>
                    </g>
                    <polygon id="Shape" fill="#FFFFFF" points="20.6707266 28.3029854 17.6574668 24.1428293 20.6707266 19.9826732 23.6839062 24.1428293"></polygon>
                    <g id="Group" transform="translate(9.000000, 7.000000)" fill="#637982">
                        <path d="M41,10.4585366 C41,8.5473561 39.4047637,6.99254634 37.4438906,6.99254634 C35.4830176,6.99254634 33.8877813,8.5473561 33.8877813,10.4585366 C33.8877813,11.4286829 34.2993828,12.3064195 34.960668,12.9361951 L28.7627813,17.8237659 L22.0250078,7.93959024 C23.645709,7.37717073 24.8092441,5.86755122 24.8092441,4.09740488 C24.8092441,1.84897561 22.9324531,0.0197463415 20.6255625,0.0197463415 C18.3186719,0.0197463415 16.4418809,1.84897561 16.4418809,4.09740488 C16.4418809,5.86716098 17.6049355,7.37646829 19.224916,7.9392 L12.4881836,17.8236878 L6.15024023,12.825678 C6.74626172,12.2056585 7.11221875,11.3731902 7.11221875,10.4585366 C7.11221875,8.5473561 5.51698242,6.99254634 3.55610937,6.99254634 C1.59523633,6.99254634 0,8.5473561 0,10.4585366 C0,12.1815415 1.29678516,13.614361 2.98899609,13.879961 L5.99432812,31.2957659 C6.06207422,31.6884293 6.41097461,31.9802537 6.81945312,31.9802537 L34.4316719,31.9802537 C34.8402305,31.9802537 35.1890508,31.6885073 35.2567969,31.2957659 L38.2707773,13.8310244 C39.8339824,13.4666927 41,12.0922537 41,10.4585366 L41,10.4585366 Z M18.1152734,4.09740488 C18.1152734,2.74833171 19.241332,1.65080976 20.6254824,1.65080976 C22.0096328,1.65080976 23.1356914,2.74833171 23.1356914,4.09740488 C23.1356914,5.44647805 22.0096328,6.544 20.6254824,6.544 C19.241332,6.544 18.1152734,5.44647805 18.1152734,4.09740488 L18.1152734,4.09740488 Z M12.803291,19.8274341 C13.0361582,19.7926244 13.2431602,19.6638439 13.3734473,19.4725463 L20.6247617,8.83301463 L27.8775977,19.4725463 C28.0079648,19.6637659 28.2149668,19.7925463 28.4477539,19.8273561 C28.680541,19.8619317 28.9176523,19.7996488 29.100791,19.6551805 L36.5194687,13.8049561 C36.538127,13.8098732 36.5567051,13.8148683 36.5754434,13.8194732 L36.173291,16.1514927 L28.0098066,22.6117463 L21.3233633,12.8003902 C21.168252,12.572878 20.9066367,12.4360585 20.6263633,12.4360585 C20.3460898,12.4360585 20.0843945,12.5728 19.9293633,12.8003902 L13.244041,22.6097951 L5.08424023,16.1902049 L4.66375,13.7514927 L12.1501738,19.6551805 C12.3333125,19.7997268 12.5701836,19.8620098 12.803291,19.8274341 L12.803291,19.8274341 Z M1.67347266,10.4585366 C1.67347266,9.4467122 2.51797656,8.62360976 3.55610937,8.62360976 C4.59424219,8.62360976 5.43874609,9.4467122 5.43874609,10.4585366 C5.43874609,11.470361 4.59424219,12.2934634 3.55610937,12.2934634 C2.51797656,12.2934634 1.67347266,11.470361 1.67347266,10.4585366 L1.67347266,10.4585366 Z M33.7238613,30.3491902 L7.52718359,30.3491902 L5.50441016,18.6210341 L12.9073926,24.443239 C13.0905313,24.5873951 13.3275625,24.6485073 13.5601895,24.6136976 C13.7928164,24.5788098 13.9996582,24.4494829 14.1299453,24.2583415 L20.6263633,14.7258537 L27.1252637,24.2619317 C27.255791,24.4533854 27.4630332,24.5821659 27.6961406,24.6168195 C27.9296484,24.6515512 28.1665996,24.5885659 28.3496582,24.4437073 L35.7518398,18.5901268 L33.7238613,30.3491902 L33.7238613,30.3491902 Z M37.4438906,12.2934634 C36.4057578,12.2934634 35.5612539,11.470361 35.5612539,10.4585366 C35.5612539,9.4467122 36.4057578,8.62360976 37.4438906,8.62360976 C38.4820234,8.62360976 39.3265273,9.4467122 39.3265273,10.4585366 C39.3265273,11.470361 38.4820234,12.2934634 37.4438906,12.2934634 L37.4438906,12.2934634 Z" id="Shape"></path>
                        <path d="M21.3123926,19.5123512 C21.1555996,19.295922 20.9007109,19.1671415 20.6288457,19.1671415 C20.3569805,19.1671415 20.1020918,19.295922 19.9452988,19.5123512 L16.9320391,23.6725073 C16.7277598,23.9544976 16.7277598,24.331239 16.9320391,24.6131512 L19.9452988,28.7733073 C20.1020918,28.9897366 20.3569805,29.1185171 20.6288457,29.1185171 C20.9007109,29.1185171 21.1555996,28.9897366 21.3123926,28.7733073 L24.3256523,24.6131512 C24.5299316,24.331161 24.5299316,23.9544195 24.3256523,23.6725073 L21.3123926,19.5123512 L21.3123926,19.5123512 Z M20.6288457,26.8889756 L18.6398652,24.1428293 L20.6288457,21.3966829 L22.6178262,24.1428293 L20.6288457,26.8889756 L20.6288457,26.8889756 Z" id="Shape"></path>
                    </g>
                </g>
                <g id="Group-2" transform="translate(56.000000, 2.000000)" font-style="italic">
                    <text id="Made" font-family="DroidSerif-BoldItalic, Droid Serif" font-size="28" font-weight="bold" line-spacing="28" letter-spacing="-1.89999998" fill="#576B74">
                        <tspan x="2" y="33">Mad</tspan>
                        <tspan x="60.2023438" y="33">e</tspan>
                    </text>
                    <text id="line" opacity="0.68115942" font-family="DroidSerif-Italic, Droid Serif" font-size="28" font-weight="normal" line-spacing="28" letter-spacing="-0.800000012" fill="#567592">
                        <tspan x="75" y="33">line</tspan>
                    </text>
                    <text id="COGNITIVES-THEME" font-family="OpenSans-BoldItalic, Open Sans" font-size="11" font-weight="bold" letter-spacing="1.09000003" fill="#617587">
                        <tspan x="0" y="38">COGNITIVES THEM</tspan>
                        <tspan x="110.016504" y="38">E</tspan>
                    </text>
                </g>
            </g>
        </g>
    </g>
</svg>