<?xml version="1.0" encoding="UTF-8"?>
<svg width="17px" height="16px" viewBox="0 0 17 16" version="1.1" xmlns="http://www.w3.org/2000/svg" xmlns:xlink="http://www.w3.org/1999/xlink">
    <!-- Generator: Sketch 40.3 (33839) - http://www.bohemiancoding.com/sketch -->
    <title>path-1</title>
    <desc>Created with Sketch.</desc>
    <defs></defs>
    <g id="Page-1" stroke="none" stroke-width="1" fill="none" fill-rule="evenodd">
        <g id="Artboard" transform="translate(-1801.000000, -91.000000)" fill="#9FA8AA">
            <g id="Group-5" transform="translate(1789.000000, 80.000000)">
                <path d="M28,17.7368421 L28,17.7368421 C27.9350473,17.7555556 27.6752367,17.5777778 27.1578947,17.7368421 L27.1578947,17.7368421 L27.1578947,17.7368421 C26.5493908,17.4888889 26.2029766,17.2222222 26.3157895,16.8947368 C26.0297696,16.8666667 25.9431666,16.7777777 26.3157895,16.8947368 C25.856563,16.5111111 25.7699595,16.2444445 25.4736842,16.0526316 L25.4736842,16.0526316 C25.5967524,15.9777778 25.5967524,15.8888889 25.4736842,16.0526316 L25.4736842,16.0526316 C25.5967524,15.7111111 25.5101489,15.6222222 25.4736842,15.2105263 C25.5101489,15.1777778 25.5967524,14.9111111 25.4736842,14.3684211 L25.4736842,14.3684211 L26.3157895,14.3684211 L26.3157895,14.3684211 C26.2029766,14.2888889 26.2029766,13.9333333 26.3157895,13.5263158 L26.3157895,13.5263158 C25.7699595,13.4888889 25.5967524,13.3111111 25.4736842,13.5263158 C25.2503383,12.9555555 25.0771312,12.7777778 24.6315789,12.6842105 L24.6315789,12.6842105 C24.6441135,12.4222222 24.3843029,12.4222222 23.7894737,12.6842105 L23.7894737,12.6842105 L23.7894737,12.6842105 C23.5182676,13.2222222 23.0852504,13.3111111 22.9473684,13.5263158 C22.6522327,13.2222222 22.6522327,13.2222222 22.9473684,13.5263158 C22.3058186,13.0444444 22.1326115,12.9555555 22.1052632,12.6842105 L22.1052632,12.6842105 L22.1052632,12.6842105 C21.6995938,12.7777778 21.5263868,12.7777778 21.2631579,12.6842105 C21.2665762,12.5111111 21.1799726,12.3333333 21.2631579,11.8421053 L21.2631579,11.8421053 L21.2631579,11.8421053 C21.1799726,11.2666666 20.920162,11 20.4210526,11 L20.4210526,11 L20.4210526,11 L19.5789474,11 L19.5789474,11 L19.5789474,11 L18.7368421,11 C18.7550742,11.0888889 18.5818671,11.3555555 18.7368421,11.8421053 L18.7368421,11.8421053 C18.5818671,12.3333333 18.3220565,12.6888889 17.8947368,12.6842105 L17.8947368,12.6842105 C17.6292287,12.9555555 17.3694181,13.0444444 17.0526316,13.5263158 L17.0526316,13.5263158 C17.1096075,13.2222222 17.1096075,13.2222222 17.0526316,13.5263158 C16.9364005,13.3111111 16.7631934,13.3111111 16.2105263,13.5263158 C16.3301757,13.3111111 16.0703651,13.2222222 16.2105263,12.6842105 L16.2105263,12.6842105 L15.3684211,12.6842105 C15.4641409,12.6 15.1177268,12.6 14.5263158,12.6842105 L14.5263158,12.6842105 L14.5263158,12.6842105 C14.5981055,13.0444444 14.4248985,13.1333333 14.5263158,13.5263158 C14.0784843,13.4888889 13.9918808,13.6666667 13.6842105,13.5263158 L13.6842105,13.5263158 L13.6842105,13.5263158 C13.5588631,14.2 13.5588631,14.5555556 13.6842105,15.2105263 L13.6842105,15.2105263 C14.2516914,15.2666667 14.3382949,15.8 14.5263158,16.0526316 L14.5263158,16.0526316 C14.0784843,16.5111111 13.9052772,16.7777777 13.6842105,16.8947368 L13.6842105,16.8947368 L13.6842105,16.8947368 C13.7320702,17.2222222 13.7320702,17.4 13.6842105,17.7368421 C13.385656,17.6666666 13.1258454,17.7555556 12.8421053,17.7368421 L12.8421053,17.7368421 L12.8421053,17.7368421 C12.2598106,17.7555556 12,18.0222222 12,18.5789474 L12,18.5789474 L12,18.5789474 L12,19.4210526 L12,19.4210526 L12,19.4210526 L12,19.4210526 L12,19.4210526 C12.0866035,20.1555555 12.3464141,20.3333334 12.8421053,20.2631579 L12.8421053,20.2631579 L12.8421053,20.2631579 C13.2990525,20.3333334 13.6454666,20.6 13.6842105,21.1052632 L13.6842105,21.1052632 L13.6842105,21.1052632 L13.6842105,21.1052632 C13.9052772,21.3111111 13.9918808,21.5777778 14.5263158,21.9473684 L14.5263158,21.9473684 C14.1650879,21.8444444 14.1650879,21.8444444 14.5263158,21.9473684 C14.2516914,22.0222222 14.2516914,22.2 14.5263158,22.7894737 C14.2516914,22.6444444 14.1650879,22.9111111 13.6842105,22.7894737 L13.6842105,22.7894737 L13.6842105,23.6315789 L13.6842105,23.6315789 C13.5588631,23.5333333 13.5588631,23.8888889 13.6842105,24.4736842 L13.6842105,24.4736842 C13.9918808,24.3333333 14.0784843,24.5111111 14.5263158,24.4736842 L14.5263158,24.4736842 C14.4248985,24.8666667 14.5981055,24.9555556 14.5263158,25.3157895 L14.5263158,25.3157895 C15.1177268,25.4 15.3775374,25.4 15.3684211,25.3157895 L16.2105263,25.3157895 L16.2105263,24.4736842 C16.2435722,24.6 16.7631934,24.5111111 17.0526316,24.4736842 L17.0526316,24.4736842 L17.0526316,24.4736842 C17.4560217,24.7777778 17.7158323,24.9555556 17.8947368,25.3157895 L17.8947368,25.3157895 C18.14885,25.1333333 18.3220565,25.1333333 18.7368421,25.3157895 C18.5818671,25.4888889 18.6684706,25.7555556 18.7368421,26.1578947 L18.7368421,26.1578947 L18.7368421,26.1578947 C18.6684706,26.6444445 18.9282812,26.9111111 19.5789474,27 L19.5789474,27 L19.5789474,27 L20.4210526,27 L20.4210526,27 C21.0067656,27 21.2665762,26.6444445 21.2631579,26.1578947 L21.2631579,26.1578947 C21.2665762,25.5777778 21.5263868,25.3111111 22.1052632,25.3157895 C21.9594045,25.1333333 22.046008,25.0444445 22.1052632,25.3157895 C22.2192151,24.9555556 22.4790257,24.8666667 22.9473684,24.4736842 C22.7388363,24.7777778 22.7388363,24.6888889 22.9473684,24.4736842 C22.9120434,24.6888889 23.0852504,24.6 22.9473684,24.4736842 C23.431664,24.6 23.6914746,24.6888889 23.7894737,24.4736842 L23.7894737,25.3157895 L23.7894737,25.3157895 C24.3843029,25.4 24.7307171,25.4 24.6315789,25.3157895 L24.6315789,25.3157895 C24.9905277,25.2222222 24.9905277,25.2222222 25.4736842,25.3157895 C25.2503383,24.9555556 25.4235454,24.8666667 25.4736842,24.4736842 C25.7699595,24.5111111 25.9431666,24.3333333 26.3157895,24.4736842 C26.0297696,24.1555556 26.0297696,24.0666667 26.3157895,24.4736842 C26.2895802,23.8 26.2895802,23.4444444 26.3157895,23.6315789 L26.3157895,23.6315789 L26.3157895,22.7894737 L25.4736842,22.7894737 C25.5101489,22.7333333 25.4235454,22.2888889 25.4736842,21.9473684 C25.5967524,21.8444444 25.5967524,21.7555555 25.4736842,21.9473684 C25.7699595,21.4888889 25.9431666,21.2222223 26.3157895,21.1052632 L26.3157895,21.1052632 C26.1163731,20.8666667 26.1163731,20.6888889 26.3157895,20.2631579 C26.4627872,20.4222222 26.7225978,20.3333334 27.1578947,20.2631579 L27.1578947,20.2631579 L27.1578947,20.2631579 C27.5886332,20.3333334 27.8484438,20.0666667 28,19.4210526 L28,19.4210526 L28,18.5789474 C28.0216509,18.6444445 28.0216509,18.3777778 28,17.7368421 L28,17.7368421 L28,17.7368421 Z M22.9473684,19.4210526 L22.9473684,19.4210526 C22.9473684,19.3368421 22.8631579,19.6736842 22.9473684,20.2631579 C22.7789473,20.0105263 22.6947368,20.1789474 22.9473684,20.2631579 C22.4421052,20.5157895 22.2736841,20.8526316 22.1052632,21.1052632 C21.7684208,21.2736843 21.5157892,21.4421053 21.2631579,21.9473684 C21.178947,21.6947369 21.010526,21.6947369 21.2631579,21.9473684 C20.5894738,21.8631579 20.3368422,21.9473684 19.5789474,21.9473684 L19.5789474,21.9473684 C19.6631578,21.9473684 19.3263157,21.8631579 18.7368421,21.9473684 C18.9894735,21.7789474 18.8210524,21.6947369 18.7368421,21.9473684 C18.4842103,21.4421053 18.1473686,21.2736843 17.8947368,21.1052632 C17.7263159,20.7684211 17.5578948,20.5157895 17.0526316,20.2631579 C17.3052632,20.1789474 17.3052632,20.0105263 17.0526316,20.2631579 C17.1368421,19.5894737 17.0526316,19.3368421 17.0526316,19.4210526 C17.0526316,18.6631579 17.1368421,18.3263158 17.0526316,17.7368421 C17.2210527,17.9894737 17.3052632,17.8210526 17.0526316,17.7368421 C17.5578948,17.4842105 17.7263159,17.1473685 17.8947368,16.8947368 C18.2315786,16.7263158 18.4842103,16.5578948 18.7368421,16.0526316 C18.8210524,16.3052632 18.9894735,16.3052632 18.7368421,16.0526316 C19.4105262,16.1368421 19.6631578,16.0526316 19.5789474,16.0526316 L19.5789474,16.0526316 C20.3368422,16.0526316 20.6736843,16.1368421 21.2631579,16.0526316 C21.010526,16.2210527 21.178947,16.3052632 21.2631579,16.0526316 C21.5157892,16.5578948 21.8526314,16.7263158 22.1052632,16.8947368 C22.2736841,17.231579 22.4421052,17.4842105 22.9473684,17.7368421 C22.6947368,17.8210526 22.6947368,17.9894737 22.9473684,17.7368421 L22.9473684,19.4210526 L22.9473684,19.4210526 L22.9473684,19.4210526 L22.9473684,19.4210526 Z" id="path-1"></path>
            </g>
        </g>
    </g>
</svg>