<?xml version="1.0" encoding="UTF-8"?>
<svg width="15px" height="15px" viewBox="0 0 15 15" version="1.1" xmlns="http://www.w3.org/2000/svg" xmlns:xlink="http://www.w3.org/1999/xlink">
    <!-- Generator: sketchtool 41 (35326) - http://www.bohemiancoding.com/sketch -->
    <title>4CE4492C-4F41-4848-A84A-5EE82A7345D3</title>
    <desc>Created with sketchtool.</desc>
    <defs></defs>
    <g id="Page-1" stroke="none" stroke-width="1" fill="none" fill-rule="evenodd">
        <g id="User-profile-update" transform="translate(-637.000000, -1176.000000)" fill="#517383">
            <g id="Group-4-Copy" transform="translate(630.000000, 1170.000000)">
                <path d="M17.125,15.2499903 C18.5624951,14.3749805 19.4999805,12.8125049 19.4999805,11.0000097 C19.5000097,8.25 17.2499805,6 14.5,6 C11.7500195,6 9.49999026,8.25 9.49999026,11.0000097 C9.49999026,12.8125049 10.4374756,14.3750097 11.8749708,15.2499903 C9.37498052,16.1875049 7.49998052,18.375 7,21 L8.25000974,21 C8.875,18.1250097 11.4375244,15.9999903 14.5,15.9999903 C17.5624756,15.9999903 20.125,18.1249805 20.7499903,21 L22,21 C21.5000195,18.3124951 19.6250195,16.125 17.125,15.2499903 Z M10.75,11.0000097 C10.75,8.93752435 12.4375146,7.25000974 14.5,7.25000974 C16.5624854,7.25000974 18.25,8.93752435 18.25,11.0000097 C18.25,13.0624951 16.5624854,14.7500097 14.5,14.7500097 C12.4375146,14.7500097 10.75,13.0624951 10.75,11.0000097 Z" id="Shape"></path>
            </g>
        </g>
    </g>
</svg>